# xmcd
#
# Track frame offsets:
#	150
#	18596
#	42364
#	65481
#	84293
#	106681
#	133514
#	153486
#	183398
#	195477
#	217545
#	238924
#	259216
#	287184
#
# Disc length: 3872 seconds
#
# Revision: 0
# Processed by: cddbd v1.5.2PL0 Copyright (c) Steve Scherf et al.
# Submitted via: VUPlayer 2.49
#
DISCID=bd0f1e0e
DTITLE=The Bellhops - The Great Con Job (Live)
DYEAR=2011
DGENRE=Blues
TTITLE0=Bellhoppin'
TTITLE1=Have I Got Blues For You
TTITLE2=The Thrill Is Gone
TTITLE3=Saturday Night
TTITLE4=Cell Block No.9
TTITLE5=Cc Rider
TTITLE6=Middle Arm Boogie
TTITLE7=Personal Manager
TTITLE8=Use It Or Loose It
TTITLE9=Who's Been Talkin'
TTITLE10=Walkin' The Dog
TTITLE11=Little Sister
TTITLE12=I'm Ready
TTITLE13=For He's A Jolly Good Fellow
EXTD=
EXTT0=
EXTT1=
EXTT2=
EXTT3=
EXTT4=
EXTT5=
EXTT6=
EXTT7=
EXTT8=
EXTT9=
EXTT10=
EXTT11=
EXTT12=
EXTT13=
PLAYORDER=
